<?xml version="1.0" standalone="no"?>
<!DOCTYPE svg PUBLIC "-//W3C//DTD SVG 20010904//EN"
 "http://www.w3.org/TR/2001/REC-SVG-20010904/DTD/svg10.dtd">
<svg version="1.0" xmlns="http://www.w3.org/2000/svg"
 width="192.000000pt" height="192.000000pt" viewBox="0 0 192.000000 192.000000"
 preserveAspectRatio="xMidYMid meet">

<g transform="translate(0.000000,192.000000) scale(0.100000,-0.100000)"
fill="#000000" stroke="none">
<path d="M615 1328 c-3 -7 -65 -177 -139 -378 -74 -201 -137 -373 -141 -383
-7 -16 1 -17 115 -15 l123 3 27 80 27 80 144 0 144 0 29 -82 28 -83 119 0 c66
0 119 4 119 9 0 7 -245 687 -275 764 -6 15 -24 17 -161 17 -115 0 -156 -3
-159 -12z m199 -302 c20 -63 36 -117 36 -120 0 -3 -36 -6 -80 -6 -44 0 -80 1
-80 3 0 3 65 199 75 225 2 6 6 12 9 12 2 0 20 -51 40 -114z"/>
<path d="M1280 945 l0 -395 115 0 115 0 0 395 0 395 -115 0 -115 0 0 -395z"/>
</g>
</svg>
