<svg version="1.2" xmlns="http://www.w3.org/2000/svg" viewBox="0 0 1280 1280" width="1280" height="1280">
	<title>新建项目</title>
	<style>
		.s0 { fill: #000000 } 
		.s1 { fill: #fc5656 } 
	</style>
	<g id="组 1">
		<path id="Layer 1 copy 4" fill-rule="evenodd" class="s0" d="m968 894.5v-360c0-35.1 28.4-63.5 63.5-63.5 35.1 0 63.5 28.4 63.5 63.5v360c0 35.1-28.4 63.5-63.5 63.5-35.1 0-63.5-28.4-63.5-63.5z"/>
		<path id="形状 1" fill-rule="evenodd" class="s1" d="m1032 448c-35.9 0-65-28.4-65-63.5 0-35.1 29.1-63.5 65-63.5 35.9 0 65 28.4 65 63.5 0 35.1-29.1 63.5-65 63.5z"/>
	</g>
	<path id="Layer 1 copy 5" fill-rule="evenodd" class="s0" d="m607.5 958h-360c-35.1 0-63.5-28.4-63.5-63.5 0-35.1 28.4-63.5 63.5-63.5h360c35.1 0 63.5 28.4 63.5 63.5 0 35.1-28.4 63.5-63.5 63.5z"/>
	<path id="Layer 1 copy 7" fill-rule="evenodd" class="s0" d="m751.2 921.8l-267.3-506c-16.4-31-4.5-69.5 26.5-85.8 31-16.4 69.4-4.6 85.8 26.4l267.3 506.1c16.4 31 4.5 69.4-26.5 85.8-31 16.4-69.4 4.5-85.8-26.5z"/>
	<path id="Layer 1 copy 6" fill-rule="evenodd" class="s0" d="m595.4 416.7l-293.6 508.7c-17.6 30.3-56.4 40.7-86.8 23.2-30.4-17.5-40.8-56.4-23.2-86.7l293.6-508.7c17.6-30.3 56.4-40.7 86.8-23.2 30.3 17.5 40.7 56.4 23.2 86.7z"/>
</svg>